# Blender 4.1.1
# www.blender.org
mtllib ../obj/room.mtl
o mybox
v -1.017427 -0.005008 -0.771211
v -1.017427 0.564532 -0.771211
v -0.921117 -0.005008 -1.251947
v -0.921117 0.564532 -1.251947
v -0.536691 -0.005008 -0.674901
v -0.536691 0.564532 -0.674901
v -0.440381 -0.005008 -1.155637
v -0.440381 0.564532 -1.155637
vn -0.9805 -0.0000 -0.1964
vn 0.1964 -0.0000 -0.9805
vn 0.9805 -0.0000 0.1964
vn -0.1964 -0.0000 0.9805
vn -0.0000 -1.0000 -0.0000
vn -0.0000 1.0000 -0.0000
vt 0.625000 0.000000
vt 0.375000 0.250000
vt 0.375000 0.000000
vt 0.625000 0.250000
vt 0.375000 0.500000
vt 0.625000 0.500000
vt 0.375000 0.750000
vt 0.625000 0.750000
vt 0.375000 1.000000
vt 0.125000 0.750000
vt 0.125000 0.500000
vt 0.875000 0.500000
vt 0.625000 1.000000
vt 0.875000 0.750000
s 0
usemtl mybox
f 2/1/1 3/2/1 1/3/1
f 4/4/2 7/5/2 3/2/2
f 8/6/3 5/7/3 7/5/3
f 6/8/4 1/9/4 5/7/4
f 7/5/5 1/10/5 3/11/5
f 4/12/6 6/8/6 8/6/6
f 2/1/1 4/4/1 3/2/1
f 4/4/2 8/6/2 7/5/2
f 8/6/3 6/8/3 5/7/3
f 6/8/4 2/13/4 1/9/4
f 7/5/5 5/7/5 1/10/5
f 4/12/6 2/14/6 6/8/6
o mywall
v -3.092018 -0.046053 4.920420
v -3.092018 2.985380 4.920420
v -3.092018 -0.046053 -2.931654
v -3.092018 2.985380 -2.931654
v 3.092018 -0.046053 4.920420
v 3.092018 2.985380 4.920420
v 3.092018 -0.046053 -2.931654
v 3.092018 2.985380 -2.931654
vn -1.0000 -0.0000 -0.0000
vn -0.0000 -0.0000 -1.0000
vn 1.0000 -0.0000 -0.0000
vn -0.0000 -0.0000 1.0000
vn -0.0000 -1.0000 -0.0000
vn -0.0000 1.0000 -0.0000
vt 0.625000 0.000000
vt 0.375000 0.250000
vt 0.375000 0.000000
vt 0.625000 0.250000
vt 0.375000 0.500000
vt 0.625000 0.500000
vt 0.375000 0.750000
vt 0.625000 0.750000
vt 0.375000 1.000000
vt 0.125000 0.750000
vt 0.125000 0.500000
vt 0.875000 0.500000
vt 0.625000 1.000000
vt 0.875000 0.750000
s 0
usemtl wall1
f 12/18/8 15/19/8 11/16/8
f 14/22/10 9/23/10 13/21/10
f 12/18/8 16/20/8 15/19/8
f 14/22/10 10/27/10 9/23/10
usemtl floor
f 15/19/11 9/24/11 11/25/11
f 12/26/12 14/22/12 16/20/12
f 15/19/11 13/21/11 9/24/11
f 12/26/12 10/28/12 14/22/12
usemtl wall2
f 10/15/7 11/16/7 9/17/7
f 16/20/9 13/21/9 15/19/9
f 10/15/7 12/18/7 11/16/7
f 16/20/9 14/22/9 13/21/9
o mybox.001
v 0.942128 -0.040255 0.025965
v 0.942128 0.544751 0.025965
v 0.860260 -0.040255 -0.470939
v 0.860260 0.544751 -0.470939
v 1.439033 -0.040255 -0.055903
v 1.439033 0.544751 -0.055903
v 1.357165 -0.040255 -0.552807
v 1.357165 0.544751 -0.552807
vn -0.9867 -0.0000 0.1626
vn -0.1626 -0.0000 -0.9867
vn 0.9867 -0.0000 -0.1626
vn 0.1626 -0.0000 0.9867
vn -0.0000 -1.0000 -0.0000
vn -0.0000 1.0000 -0.0000
vt 0.625000 0.000000
vt 0.375000 0.250000
vt 0.375000 0.000000
vt 0.625000 0.250000
vt 0.375000 0.500000
vt 0.625000 0.500000
vt 0.375000 0.750000
vt 0.625000 0.750000
vt 0.375000 1.000000
vt 0.125000 0.750000
vt 0.125000 0.500000
vt 0.875000 0.500000
vt 0.625000 1.000000
vt 0.875000 0.750000
s 0
usemtl mybox2
f 18/29/13 19/30/13 17/31/13
f 20/32/14 23/33/14 19/30/14
f 24/34/15 21/35/15 23/33/15
f 22/36/16 17/37/16 21/35/16
f 23/33/17 17/38/17 19/39/17
f 20/40/18 22/36/18 24/34/18
f 18/29/13 20/32/13 19/30/13
f 20/32/14 24/34/14 23/33/14
f 24/34/15 22/36/15 21/35/15
f 22/36/16 18/41/16 17/37/16
f 23/33/17 21/35/17 17/38/17
f 20/40/18 18/42/18 22/36/18
